<svg xmlns="http://www.w3.org/2000/svg" xmlns:xlink="http://www.w3.org/1999/xlink" width="331.2" height="2in" x="0" y="0" version="1.1" viewBox="0 0 57.6 115.2"><g id="Layer_1"><g><path fill="#FFF" d="M14.4,-0 L57.6,-0 L57.6,108.169 L14.4,108.169 z"/><path fill-opacity="0" stroke="#000" stroke-linecap="round" stroke-width=".9" d="M14.4,-0 L57.6,-0 L57.6,108.169 L14.4,108.169 z"/></g><path id="connector0pin" fill-opacity="0" stroke="#787878" stroke-linecap="round" stroke-width=".7" d="M0,7.4 L14.4,7.4"/><text transform="matrix(1, 0, 0, 1, 7.55, 6.15)"><tspan x="-.695" y="0" fill="#8C8C8C" font-family="Helvetica" font-size="2.5">1</tspan></text><text transform="matrix(1, 0, 0, 1, 20.395, 7.4)"><tspan x="-4.195" y=".5" fill="#8C8C8C" font-family="Helvetica" font-size="3.5">VCC</tspan></text><path id="connector1pin" fill-opacity="0" stroke="#787878" stroke-linecap="round" stroke-width=".7" d="M0,14.4 L14.4,14.4"/><text transform="matrix(1, 0, 0, 1, 7.55, 13.35)"><tspan x="-.695" y="0" fill="#8C8C8C" font-family="Helvetica" font-size="2.5">2</tspan></text><text transform="matrix(1, 0, 0, 1, 20.589, 14.6)"><tspan x="-4.389" y=".5" fill="#8C8C8C" font-family="Helvetica" font-size="3.5">GND</tspan></text><path id="connector2pin" fill-opacity="0" stroke="#787878" stroke-linecap="round" stroke-width=".7" d="M0,21.6 L14.4,21.6"/><text transform="matrix(1, 0, 0, 1, 7.55, 20.55)"><tspan x="-.695" y="0" fill="#8C8C8C" font-family="Helvetica" font-size="2.5">3</tspan></text><text transform="matrix(1, 0, 0, 1, 19.131, 21.8)"><tspan x="-2.931" y=".5" fill="#8C8C8C" font-family="Helvetica" font-size="3.5">CS</tspan></text><path id="connector3pin" fill-opacity="0" stroke="#787878" stroke-linecap="round" stroke-width=".7" d="M0,28.8 L14.4,28.8"/><text transform="matrix(1, 0, 0, 1, 7.55, 27.75)"><tspan x="-.695" y="0" fill="#8C8C8C" font-family="Helvetica" font-size="2.5">4</tspan></text><text transform="matrix(1, 0, 0, 1, 22.534, 29)"><tspan x="-6.334" y=".5" fill="#8C8C8C" font-family="Helvetica" font-size="3.5">RESET</tspan></text><path id="connector4pin" fill-opacity="0" stroke="#787878" stroke-linecap="round" stroke-width=".7" d="M0,36 L14.4,36"/><text transform="matrix(1, 0, 0, 1, 7.55, 34.95)"><tspan x="-.695" y="0" fill="#8C8C8C" font-family="Helvetica" font-size="2.5">5</tspan></text><text transform="matrix(1, 0, 0, 1, 22.145, 36.2)"><tspan x="-5.945" y=".5" fill="#8C8C8C" font-family="Helvetica" font-size="3.5">DC/RS</tspan></text><path id="connector5pin" fill-opacity="0" stroke="#787878" stroke-linecap="round" stroke-width=".7" d="M0,43.2 L14.4,43.2"/><text transform="matrix(1, 0, 0, 1, 7.55, 42.15)"><tspan x="-.695" y="0" fill="#8C8C8C" font-family="Helvetica" font-size="2.5">6</tspan></text><text transform="matrix(1, 0, 0, 1, 25.548, 43.4)"><tspan x="-9.348" y=".5" fill="#8C8C8C" font-family="Helvetica" font-size="3.5">SDI / MOSI</tspan></text><path id="connector6pin" fill-opacity="0" stroke="#787878" stroke-linecap="round" stroke-width=".7" d="M0,50.4 L14.4,50.4"/><text transform="matrix(1, 0, 0, 1, 7.55, 49.35)"><tspan x="-.695" y="0" fill="#8C8C8C" font-family="Helvetica" font-size="2.5">7</tspan></text><text transform="matrix(1, 0, 0, 1, 20.298, 50.6)"><tspan x="-4.098" y=".5" fill="#8C8C8C" font-family="Helvetica" font-size="3.5">SCK</tspan></text><path id="connector7pin" fill-opacity="0" stroke="#787878" stroke-linecap="round" stroke-width=".7" d="M0,57.6 L14.4,57.6"/><text transform="matrix(1, 0, 0, 1, 7.55, 56.55)"><tspan x="-.695" y="0" fill="#8C8C8C" font-family="Helvetica" font-size="2.5">8</tspan></text><text transform="matrix(1, 0, 0, 1, 20.104, 57.8)"><tspan x="-3.904" y=".5" fill="#8C8C8C" font-family="Helvetica" font-size="3.5">LED</tspan></text><path id="connector8pin" fill-opacity="0" stroke="#787878" stroke-linecap="round" stroke-width=".7" d="M0,64.8 L14.4,64.8"/><text transform="matrix(1, 0, 0, 1, 7.55, 63.75)"><tspan x="-.695" y="0" fill="#8C8C8C" font-family="Helvetica" font-size="2.5">9</tspan></text><text transform="matrix(1, 0, 0, 1, 26.423, 65)"><tspan x="-10.223" y=".5" fill="#8C8C8C" font-family="Helvetica" font-size="3.5">SDO / MISO</tspan></text><text id="label" transform="matrix(1, 0, 0, 1, 44.973, 49.8)"><tspan x="-.331" y="-6.5" fill="#000" font-family="Helvetica" font-size="4.3">2.8&quot; </tspan> <tspan x="-7.173" y="-1.5" fill="#000" font-family="Helvetica" font-size="4.3">ILI9341</tspan> <tspan x="-.707" y="3.5" fill="#000" font-family="Helvetica" font-size="4.3">TFT</tspan> <tspan x="-6.212" y="8.5" fill="#000" font-family="Helvetica" font-size="4.3">display</tspan></text><path id="connector9pin" fill-opacity="0" stroke="#787878" stroke-linecap="round" stroke-width=".7" d="M0,72 L14.4,72"/><text transform="matrix(1, 0, 0, 1, 7.745, 70.963)"><tspan x="-1.39" y="0" fill="#8C8C8C" font-family="Helvetica" font-size="2.5">10</tspan></text><path id="connector10pin" fill-opacity="0" stroke="#787878" stroke-linecap="round" stroke-width=".7" d="M0,79.2 L14.4,79.2"/><path id="connector11pin" fill-opacity="0" stroke="#787878" stroke-linecap="round" stroke-width=".7" d="M0,86.4 L14.4,86.4"/><path id="connector12pin" fill-opacity="0" stroke="#787878" stroke-linecap="round" stroke-width=".7" d="M0,93.6 L14.4,93.6"/><path id="connector13pin" fill-opacity="0" stroke="#787878" stroke-linecap="round" stroke-width=".7" d="M0,100.8 L14.4,100.8"/><text transform="matrix(1, 0, 0, 1, 7.653, 78.125)"><tspan x="-1.298" y="0" fill="#8C8C8C" font-family="Helvetica" font-size="2.5">11</tspan></text><text transform="matrix(1, 0, 0, 1, 7.642, 85.281)"><tspan x="-1.39" y="0" fill="#8C8C8C" font-family="Helvetica" font-size="2.5">12</tspan></text><text transform="matrix(1, 0, 0, 1, 7.2, 92.469)"><tspan x="-1.39" y="0" fill="#8C8C8C" font-family="Helvetica" font-size="2.5">13</tspan></text><text transform="matrix(1, 0, 0, 1, 7.2, 99.625)"><tspan x="-1.39" y="0" fill="#8C8C8C" font-family="Helvetica" font-size="2.5">14</tspan></text><text transform="matrix(1, 0, 0, 1, 26.423, 100.8)"><tspan x="-10.223" y=".5" fill="#8C8C8C" font-family="Helvetica" font-size="3.5">T_IRQ</tspan></text><text transform="matrix(1, 0, 0, 1, 26.423, 93.6)"><tspan x="-10.223" y=".5" fill="#8C8C8C" font-family="Helvetica" font-size="3.5">T_DO</tspan></text><text transform="matrix(1, 0, 0, 1, 26.423, 86.4)"><tspan x="-10.223" y=".5" fill="#8C8C8C" font-family="Helvetica" font-size="3.5">T_DIN</tspan></text><text transform="matrix(1, 0, 0, 1, 26.423, 79.2)"><tspan x="-10.223" y=".5" fill="#8C8C8C" font-family="Helvetica" font-size="3.5">T_CS</tspan></text><text transform="matrix(1, 0, 0, 1, 26.423, 72)"><tspan x="-10.223" y=".5" fill="#8C8C8C" font-family="Helvetica" font-size="3.5">T_CLK</tspan></text></g></svg>